<?xml version="1.0" encoding="UTF-8" standalone="no"?>
<!-- Created with Inkscape (http://www.inkscape.org/) -->

<svg
   version="1.1"
   id="svg824"
   width="285.43423"
   height="285.47107"
   viewBox="0 0 285.43423 285.47107"
   xmlns:xlink="http://www.w3.org/1999/xlink"
   xmlns="http://www.w3.org/2000/svg"
   xmlns:svg="http://www.w3.org/2000/svg">
  <defs
     id="defs828">
    <linearGradient
       id="linearGradient2457">
      <stop
         style="stop-color:#343334;stop-opacity:1"
         offset="0"
         id="stop2453" />
      <stop
         style="stop-color:#070707;stop-opacity:1"
         offset="1"
         id="stop2455" />
    </linearGradient>
    <linearGradient
       id="linearGradient1699">
      <stop
         style="stop-color:#f03210;stop-opacity:1"
         offset="0"
         id="stop1695" />
      <stop
         style="stop-color:#d1190c;stop-opacity:1"
         offset="1"
         id="stop1697" />
    </linearGradient>
    <linearGradient
       xlink:href="#linearGradient1699"
       id="linearGradient1701"
       x1="480.86874"
       y1="146.22571"
       x2="587.79266"
       y2="240.43436"
       gradientUnits="userSpaceOnUse"
       gradientTransform="translate(-1.7339017,-1.1559345)" />
    <linearGradient
       xlink:href="#linearGradient2457"
       id="linearGradient2459"
       x1="411.51266"
       y1="43.347542"
       x2="562.94006"
       y2="217.31567"
       gradientUnits="userSpaceOnUse" />
  </defs>
  <g
     id="g830"
     transform="translate(-12.981353,-11.433096)">
    <g
       id="g2944">
      <g
         id="g1295"
         transform="translate(-334.06506,1.1559345)">
        <path
           style="fill:url(#linearGradient2459);fill-opacity:1;stroke-width:0.32"
           d="m 480.77987,285.39527 c -17.50934,-1.14257 -35.33807,-6.04847 -51.04,-14.04459 -18.55929,-9.45122 -34.24311,-22.71435 -46.7358,-39.52246 -25.52772,-34.3459 -32.75849,-79.38368 -19.32278,-120.35447 15.94443,-48.620888 58.85712,-83.948308 109.56768,-90.200434 16.13146,-1.988854 32.93284,-0.987567 48.59196,2.895863 50.68549,12.569901 89.57834,54.243335 98.58993,105.638471 0.4263,2.43131 0.88013,5.48784 1.00849,6.79228 l 0.23341,2.37171 -1.08645,-0.81516 c -2.24029,-1.68089 -3.8473,-2.27292 -6.52644,-2.40435 -2.14194,-0.10507 -6.94961,0.58088 -29.44,4.20047 -20.80994,3.34915 -26.9604,4.23907 -27.23602,3.94084 -0.1958,-0.21187 -7.89497,-9.81722 -17.10925,-21.34522 -17.66255,-22.09763 -18.96291,-23.648281 -20.81669,-24.823421 -3.09715,-1.96333 -7.83554,-2.25208 -11.25639,-0.68597 -2.50367,1.14622 -5.06149,3.639871 -6.09441,5.941511 -0.9089,2.02531 -0.74896,0.98719 -5.93705,38.536 -1.55087,11.22447 -2.87611,20.45662 -2.94498,20.5159 -0.0689,0.0593 -11.62981,4.68864 -25.69098,10.28749 -14.85752,5.91594 -26.18325,10.60324 -27.04,11.19085 -3.23113,2.21613 -4.99296,5.71514 -4.99375,9.91764 -6.4e-4,4.21252 1.74591,7.63061 5.03679,9.85643 0.9255,0.62597 12.55001,6.83883 25.83224,13.80636 13.28224,6.96753 24.25955,12.77827 24.39403,12.91275 0.13448,0.13448 1.03426,11.832 1.99952,25.99449 0.96526,14.16248 1.84341,26.64997 1.95145,27.74997 l 0.19643,2 -5.06547,-0.046 c -2.78601,-0.0253 -6.86547,-0.16343 -9.06547,-0.30699 z m 51.84,-8.80096 c 17.01343,-17.82973 20.97503,-21.88867 21.26321,-21.78565 0.18523,0.0662 3.68705,1.03594 7.78181,2.15491 4.11993,1.12585 7.39642,2.18033 7.33619,2.36102 -0.18337,0.55012 -8.94986,6.34549 -13.77324,9.10525 -5.38962,3.08374 -13.07897,6.68211 -19.08797,8.93258 -6.78078,2.53951 -6.69421,2.5584 -3.52,-0.76811 z m 66.68683,-65.81773 -4.71164,-9.37165 13.67858,-22.38835 c 7.52323,-12.3136 13.82309,-22.53236 13.9997,-22.70836 0.21474,-0.214 0.26245,0.26298 0.14402,1.44 -0.0974,0.968 -0.26077,3.272 -0.36305,5.12 -0.82705,14.94336 -5.36347,32.16717 -12.40289,47.0911 -1.69232,3.58781 -5.26231,10.1889 -5.51033,10.1889 -0.0675,0 -2.24299,-4.21724 -4.83439,-9.37164 z"
           id="path932" />
        <path
           d="m 507.30291,284.47582 c -0.0892,-0.572 -1.0677,-14.54086 -2.17443,-31.0419 l -2.01224,-30.00191 -20.80007,-10.92887 c -34.91585,-18.34565 -34.17846,-17.94682 -33.68831,-18.22113 0.24961,-0.13968 12.9684,-5.23805 28.264,-11.3297 15.29559,-6.09166 27.85604,-11.12161 27.9121,-11.17768 0.0561,-0.0561 2.03469,-14.03468 4.39694,-31.0636 2.36224,-17.02891 4.35031,-31.01697 4.41791,-31.08458 0.0676,-0.0676 8.80383,10.71585 19.41383,23.96323 10.61,13.24738 19.46447,24.27423 19.6766,24.50412 0.31546,0.34187 5.85301,-0.459 30.41135,-4.39826 16.51412,-2.64893 30.06971,-4.7722 30.12354,-4.71837 0.0538,0.0538 -7.17174,11.9925 -16.05683,26.53038 l -16.1547,26.43249 7.84176,15.40583 c 4.31296,8.47321 7.84175,15.52221 7.84175,15.66445 0,0.80322 -8.2072,10.38332 -12.70338,14.82841 l -2.83512,2.8029 -15.03075,-4.13907 c -8.26691,-2.27649 -15.25633,-4.1858 -15.53203,-4.24291 -0.31673,-0.0656 -8.13701,7.87796 -21.24131,21.57617 -12.63022,13.20266 -20.96845,21.68 -21.32421,21.68 -0.41249,0 -0.63187,-0.30568 -0.7464,-1.04 z"
           style="fill:url(#linearGradient1701);fill-opacity:1;stroke-width:0.32"
           id="path1565" />
      </g>
    </g>
  </g>
</svg>
